<svg width="24.000000" height="24.000000" viewBox="0 0 24 24" fill="none" xmlns="http://www.w3.org/2000/svg" xmlns:xlink="http://www.w3.org/1999/xlink">
	<desc>
			Created with Pixso.
	</desc>
	<defs/>
	<mask id="mask_3_1265" fill="white">
		<path id="color" d="M8 4C10.2092 4 12 5.79086 12 8C12 10.2091 10.2092 12 8 12C5.79077 12 4 10.2091 4 8C4 5.79086 5.79077 4 8 4ZM20 7C20 5.34314 18.6567 4 17 4C15.3433 4 14 5.34314 14 7C14 8.65686 15.3433 10 17 10C18.6567 10 20 8.65686 20 7ZM8 6C6.89551 6 6 6.89543 6 8C6 9.10457 6.89551 10 8 10C9.10449 10 10 9.10457 10 8C10 6.89543 9.10449 6 8 6ZM16 6L18 6L18 8L16 8L16 6ZM22.0002 13.6825C20.9253 12.0656 19.0872 11 17 11C14.6768 11 12.6619 12.3204 11.6663 14.2518C10.6509 13.4657 9.37842 13 8 13C4.68628 13 2 15.6863 2 19L2 20L14.0215 20L13.999 18.952L14 17L21.9993 17L22.0002 13.6825ZM13.6606 14.7973C14.3765 13.7144 15.6047 13 17 13L17.2007 13.005C18.5303 13.0708 19.6926 13.7872 20.3708 14.845L20.4641 15L13.5349 15L13.6606 14.7973ZM8 15C6.26196 15 4.78296 16.1084 4.2312 17.6569L4.16943 17.8447L4.12598 18L11.873 18L11.8362 17.8625C11.3826 16.3295 10.0354 15.1846 8.40503 15.0203L8.19995 15.0049L8 15Z" clip-rule="evenodd" fill="" fill-opacity="1.000000" fill-rule="evenodd"/>
	</mask>
	<path id="color" d="M8 4C10.2092 4 12 5.79086 12 8C12 10.2091 10.2092 12 8 12C5.79077 12 4 10.2091 4 8C4 5.79086 5.79077 4 8 4ZM20 7C20 5.34314 18.6567 4 17 4C15.3433 4 14 5.34314 14 7C14 8.65686 15.3433 10 17 10C18.6567 10 20 8.65686 20 7ZM8 6C6.89551 6 6 6.89543 6 8C6 9.10457 6.89551 10 8 10C9.10449 10 10 9.10457 10 8C10 6.89543 9.10449 6 8 6ZM16 6L18 6L18 8L16 8L16 6ZM22.0002 13.6825C20.9253 12.0656 19.0872 11 17 11C14.6768 11 12.6619 12.3204 11.6663 14.2518C10.6509 13.4657 9.37842 13 8 13C4.68628 13 2 15.6863 2 19L2 20L14.0215 20L13.999 18.952L14 17L21.9993 17L22.0002 13.6825ZM13.6606 14.7973C14.3765 13.7144 15.6047 13 17 13L17.2007 13.005C18.5303 13.0708 19.6926 13.7872 20.3708 14.845L20.4641 15L13.5349 15L13.6606 14.7973ZM8 15C6.26196 15 4.78296 16.1084 4.2312 17.6569L4.16943 17.8447L4.12598 18L11.873 18L11.8362 17.8625C11.3826 16.3295 10.0354 15.1846 8.40503 15.0203L8.19995 15.0049L8 15Z" clip-rule="evenodd" fill="#7E84A3" fill-opacity="1.000000" fill-rule="evenodd" mask="url(#mask_3_1265)"/>
	<path id="color" d="" fill="#979797" fill-opacity="0.000000" fill-rule="nonzero"/>
</svg>
